<?xml version="1.0" standalone="no"?>
<!DOCTYPE svg PUBLIC "-//W3C//DTD SVG 20010904//EN"
    "http://www.w3.org/TR/2001/REC-SVG-20010904/DTD/svg10.dtd">
<svg version="1.0" xmlns="http://www.w3.org/2000/svg"
    width="512.000000pt" height="512.000000pt" viewBox="0 0 512.000000 512.000000"
    preserveAspectRatio="xMidYMid meet">

    <g transform="translate(0.000000,512.000000) scale(0.100000,-0.100000)"
        fill="#000000" stroke="none">
        <path d="M2260 4835 c-501 -70 -965 -300 -1320 -655 -357 -356 -590 -829 -654
-1328 -18 -142 -21 -398 -5 -540 93 -858 658 -1585 1474 -1899 109 -41 315
-97 445 -118 208 -36 561 -30 780 11 869 165 1569 814 1794 1664 61 230 81
406 73 663 -6 213 -21 319 -72 512 -101 386 -304 743 -584 1025 -349 351 -774
570 -1271 656 -135 23 -520 28 -660 9z m562 -320 c357 -49 699 -197 978 -422
89 -72 257 -243 321 -328 284 -372 420 -797 406 -1270 -9 -292 -63 -521 -187
-782 -292 -615 -879 -1033 -1564 -1114 -123 -14 -431 -6 -541 14 -192 36 -357
89 -523 168 -614 291 -1032 878 -1113 1563 -15 126 -6 431 15 546 78 415 266
780 551 1065 305 304 721 508 1151 564 116 14 384 12 506 -4z"/>
        <path d="M2480 3824 c-107 -46 -159 -174 -115 -282 64 -152 273 -172 369 -34
40 57 48 149 18 208 -54 104 -172 151 -272 108z"/>
        <path d="M2403 3140 c-71 -22 -123 -110 -109 -184 8 -40 56 -101 87 -111 19
-6 19 -21 19 -599 l0 -594 -58 -4 c-97 -7 -152 -65 -152 -161 0 -58 32 -105
90 -134 42 -22 55 -23 280 -23 225 0 238 1 280 23 58 29 90 76 90 134 0 96
-55 154 -152 161 l-58 4 0 681 c0 668 0 681 -21 723 -31 66 -75 87 -178 91
-47 1 -100 -2 -118 -7z"/>
    </g>
</svg>
